<?xml version="1.0" encoding="UTF-8"?>
<!DOCTYPE svg PUBLIC "-//W3C//DTD SVG 1.1//EN" "http://www.w3.org/Graphics/SVG/1.1/DTD/svg11.dtd">
<!-- Creator: CorelDRAW X8 -->
<svg xmlns="http://www.w3.org/2000/svg" xml:space="preserve" width="292mm" height="200mm" version="1.1" style="shape-rendering:geometricPrecision; text-rendering:geometricPrecision; image-rendering:optimizeQuality; fill-rule:evenodd; clip-rule:evenodd"
viewBox="0 0 29200 20000"
 xmlns:xlink="http://www.w3.org/1999/xlink">
 <defs>
  <style type="text/css">
   <![CDATA[
    .fil3 {fill:#FFED00}
    .fil2 {fill:#26ACCE}
    .fil0 {fill:#444444}
    .fil1 {fill:#444444;fill-rule:nonzero}
   ]]>
  </style>
 </defs>
 <g id="Слой_x0020_1">
  <metadata id="CorelCorpID_0Corel-Layer"/>
  <g id="_2531741450768">
   <path class="fil0" d="M16981 7518c-87,40 -164,106 -252,167 -618,426 -1374,651 -2145,652 -457,0 -960,-99 -1350,-254 -303,-120 -868,-415 -1009,-595 432,-810 1421,-1347 2379,-1346 577,0 1036,163 1456,408 302,176 834,668 921,968zm-6763 -3369c-205,2547 1703,4577 4009,4767 2533,209 4549,-1692 4756,-3982 85,-947 -139,-1896 -617,-2679l-345 -489c-218,-260 -421,-472 -691,-681 -684,-527 -1417,-849 -2347,-935 -2526,-232 -4582,1721 -4765,3999z"/>
   <path class="fil0" d="M18466 7793l-735 696c-810,681 -2008,1096 -3147,1092 -988,-3 -1956,-310 -2715,-809 -322,-212 -512,-368 -785,-626l-350 -362c58,289 176,636 258,930 90,322 174,624 269,946 182,620 336,1260 531,1872 686,2150 3577,2747 5058,984 530,-631 595,-1088 820,-1883l528 -1876c91,-300 204,-662 268,-964z"/>
   <path class="fil1" d="M106 14970l0 342 82 13c185,34 219,178 219,369l0 3334c0,191 -34,335 -219,369l-82 14 0 341 2822 0c287,0 683,-68 949,-205 479,-239 745,-724 745,-1181 0,-356 -184,-670 -417,-868 -273,-226 -662,-328 -901,-362 444,-89 1004,-396 1004,-1011 0,-581 -444,-1155 -1578,-1155l-2624 0zm1503 1838l0 -1162 772 0c116,0 724,0 724,540 0,396 -341,622 -737,622l-759 0zm0 2268l0 -1599 800 0c710,0 970,403 970,807 0,327 -171,792 -909,792l-861 0z"/>
   <path id="1" class="fil1" d="M5093 14970l0 342 82 13c185,34 219,178 219,369l0 3334c0,191 -34,335 -219,369l-82 14 0 341 4182 0 0 -1127 -356 0c-13,294 -266,451 -546,451l-1777 0 0 -1660 1374 0c82,0 314,27 348,287l328 0 0 -1250 -328 0c-34,259 -266,287 -348,287l-1374 0 0 -1094 1667 0c110,0 445,14 486,410l362 0 0 -1086 -4018 0z"/>
   <path id="2" class="fil1" d="M11638 14970l-1803 0 0 342 82 13c184,34 218,178 218,369l0 3334c0,191 -34,335 -218,369l-82 14 0 341 1803 0 0 -341 -82 -14c-184,-34 -218,-178 -218,-369l0 -1434c205,-7 410,-35 601,-76l1196 2234 1619 0 0 -341c-376,-82 -533,-390 -656,-622l-875 -1605c472,-212 745,-561 875,-827 198,-396 266,-970 218,-1387l-1509 0 0 342 54 7c212,27 294,204 246,409 -184,834 -1141,1107 -1769,1121l0 -1155c0,-191 34,-335 218,-369l82 -13 0 -342z"/>
   <path id="3" class="fil1" d="M16352 15646l0 3382c0,191 -34,335 -218,369l-82 14 0 341 1815 0 0 -341 -86 -14c-191,-34 -226,-178 -226,-369l0 -3382 617 0c178,0 455,21 476,431l355 0 0 -1107 -4099 0 0 1107 355 0c21,-410 287,-431 458,-431l635 0z"/>
   <path id="4" class="fil1" d="M21914 14847c-1565,0 -2644,1162 -2644,2514 0,1346 1079,2508 2644,2508 1564,0 2643,-1162 2643,-2508 0,-1352 -1079,-2514 -2643,-2514zm0 752c778,0 1400,649 1400,1762 0,1107 -615,1756 -1400,1756 -786,0 -1401,-649 -1401,-1756 0,-1113 622,-1762 1401,-1762z"/>
   <path id="5" class="fil1" d="M25056 14970l0 342 82 13c185,34 219,178 219,369l0 3334c0,191 -34,335 -219,369l-82 14 0 341 1804 0 0 -341 -82 -14c-185,-34 -219,-178 -219,-369l0 -703c1408,-322 2535,-868 2535,-2030 0,-239 -55,-594 -376,-901 -424,-410 -970,-424 -1318,-424l-2344 0zm1503 676l376 0c820,0 956,424 956,711 0,635 -710,1107 -1332,1312l0 -2023z"/>
   <g>
    <path class="fil0" d="M10676 9851c-198,-18 -415,21 -650,-7 -471,-57 -1056,-273 -1368,-583 122,-238 402,-505 635,-652 269,-169 613,-286 996,-297 21,-171 -625,-2466 -704,-2973 -66,-431 -55,-734 -52,-1169 -684,127 -1442,738 -1810,1319 -1397,2205 320,4932 2793,4790 313,-18 267,-11 246,-109 -16,-77 -58,-247 -86,-319z"/>
    <path class="fil0" d="M11826 12939l-329 -469c-486,-772 -491,-1546 -622,-1786 -402,17 -649,60 -1067,-2 -771,-116 -1568,-526 -2065,-1096 -36,-41 -114,-124 -148,-154 36,238 171,631 242,875 83,287 165,580 244,868 260,950 390,1636 1242,2117 688,389 1542,334 2190,-99 98,-66 254,-183 313,-254z"/>
    <path class="fil2" d="M10395 10711l584 2740c-286,92 -589,123 -887,89l-625 -2928c114,29 228,53 341,70 229,34 407,37 587,29z"/>
   </g>
   <g>
    <path class="fil0" d="M18528 9851c197,-18 414,21 649,-7 472,-57 1057,-273 1369,-583 -123,-238 -402,-505 -636,-652 -268,-169 -612,-286 -996,-297 -21,-171 626,-2466 704,-2973 67,-431 55,-734 53,-1169 684,127 1442,738 1810,1319 1397,2205 -321,4932 -2793,4790 -313,-18 -267,-11 -247,-109 17,-77 58,-247 87,-319z"/>
    <path class="fil0" d="M17378 12939l329 -469c485,-772 491,-1546 622,-1786 401,17 649,60 1066,-2 772,-116 1569,-526 2065,-1096 36,-41 114,-124 149,-154 -37,238 -171,631 -242,875 -83,287 -166,580 -244,868 -260,950 -391,1636 -1242,2117 -688,389 -1543,334 -2190,-99 -98,-66 -255,-183 -313,-254z"/>
    <path class="fil3" d="M18809 10711l-585 2740c287,92 590,123 888,89l624 -2928c-113,29 -227,53 -341,70 -229,34 -406,37 -586,29z"/>
   </g>
  </g>
 </g>
</svg>
